# xmcd
#
# Track frame offsets:
#	150
#	19935
#	37726
#	50150
#	66930
#	80575
#	99303
#	114145
#	130237
#	145541
#	161146
#	177468
#	192230
#	207449
#	219486
#	234318
#	248775
#	263619
#	277326
#
# Disc length: 3893 seconds
#
# Revision: 1
# Processed by: cddbd v1.5.1PL0 Copyright (c) Steve Scherf et al.
# Submitted via: audiograbber 1.83.01
#
DISCID=120f3313
DTITLE=ghhghhg - dfdsf
DYEAR=1900
DGENRE=
TTITLE0=Anastacia - Heavy On My Heart
TTITLE1=The Wrights - Evie Part 1
TTITLE2=Linkin Park - Izzo In The End (caution lyrics)
TTITLE3=The Killers - Mr Brightside
TTITLE4=Simple Plan - Shut Up
TTITLE5=Hilary Duff - Someone's Watching Over Me
TTITLE6=Kanye West - Jesus Walks
TTITLE7=Jesse Mccartney - Beautiful Soul
TTITLE8=Mariah Carey - It's Like That
TTITLE9=50 Cent -  Candy Shop (caution lyrics)
TTITLE10=Baby Bash - Baby Im Back
TTITLE11=Guy Sebastian - Oh Oh
TTITLE12=Britney Spears - Do Somethin (caution lyrics)
TTITLE13=The Spazzy's - My Boyfreinds Back
TTITLE14=Will Smith - Switch
TTITLE15=Inaya Day - Nasty Girl
TTITLE16=Sunset Strippers - Falling Star
TTITLE17=A Studio feat. Polina - S.O.S
TTITLE18=Scooter - Shake That!
EXTD=
EXTT0=hghggh
EXTT1=
EXTT2=
EXTT3=
EXTT4=
EXTT5=
EXTT6=
EXTT7=
EXTT8=
EXTT9=
EXTT10=
EXTT11=
EXTT12=
EXTT13=
EXTT14=
EXTT15=
EXTT16=
EXTT17=
EXTT18=
PLAYORDER=
